<svg width="42" height="40" viewBox="0 0 42 40" fill="none" xmlns="http://www.w3.org/2000/svg">
<circle cx="16.5" cy="16.5" r="16.5" transform="matrix(1 0 0 -1 5 37)" fill="url(#paint0_linear_115_416)"/>
<path d="M20.1252 23H17.7275C15.2627 23 14.0303 23 13.5141 22.2308C12.998 21.4615 13.5158 20.3965 14.5513 18.2662L19.3312 8.43342C19.986 7.08636 20.3133 6.41282 20.6568 6.48484C21.0001 6.55687 21.0002 7.29909 21.0002 8.78354V16.1667C21.0002 16.5595 21.0002 16.756 21.1283 16.878C21.2564 17 21.4627 17 21.8752 17H24.2728C26.7377 17 27.9701 17 28.4861 17.7692C29.0022 18.5385 28.4845 19.6035 27.4491 21.7337L22.6691 31.5665C22.0143 32.9137 21.687 33.5872 21.3435 33.5152C21.0002 33.4432 21.0002 32.7008 21.0002 31.2165V23.8333C21.0002 23.4405 21.0001 23.244 20.872 23.122C20.7439 23 20.5376 23 20.1252 23Z" fill="#222222"/>
<defs>
<linearGradient id="paint0_linear_115_416" x1="16.5" y1="0" x2="16.5" y2="33" gradientUnits="userSpaceOnUse">
<stop stop-color="#3AFF4E"/>
<stop offset="0.0001" stop-color="#3AFF4E"/>
<stop offset="0.9999" stop-color="#9DFF50"/>
<stop offset="1" stop-opacity="0"/>
</linearGradient>
</defs>
</svg>
