<svg width="39" height="35" viewBox="0 0 39 35" fill="none" xmlns="http://www.w3.org/2000/svg">
<circle cx="16.5" cy="16.5" r="16.5" transform="matrix(1 0 0 -1 5 33)" fill="url(#paint0_linear_115_519)"/>
<path d="M21.5 6C16.2433 6 12 9.685 12 14.25C12 19.75 21.5 28 21.5 28C21.5 28 31 19.75 31 14.25C31 9.685 26.7567 6 21.5 6ZM21.5 8.75C25.015 8.75 27.8333 11.225 27.8333 14.25C27.8333 17.3025 25.015 19.75 21.5 19.75C18.0167 19.75 15.1667 17.3025 15.1667 14.25C15.1667 11.225 18.0167 8.75 21.5 8.75Z" fill="#222222"/>
<defs>
<linearGradient id="paint0_linear_115_519" x1="16.5" y1="0" x2="16.5" y2="33" gradientUnits="userSpaceOnUse">
<stop stop-color="#3AFF4E"/>
<stop offset="0.0001" stop-color="#3AFF4E"/>
<stop offset="0.9999" stop-color="#9DFF50"/>
<stop offset="1" stop-opacity="0"/>
</linearGradient>
</defs>
</svg>
