<svg width="42" height="40" viewBox="0 0 42 40" fill="none" xmlns="http://www.w3.org/2000/svg">
<circle cx="16.5" cy="16.5" r="16.5" transform="matrix(1 0 0 -1 5 37)" fill="url(#paint0_linear_115_434)"/>
<path d="M16.75 22.5V20.5C16.75 19.81 16.19 19.25 15.5 19.25H12C11.59 19.25 11.25 19.59 11.25 20V23C11.25 23.41 11.59 23.75 12 23.75H15.5C16.19 23.75 16.75 23.19 16.75 22.5Z" fill="#222222"/>
<path d="M21.6999 12.11C20.6299 11.5 19.2699 11.68 18.3899 12.55L17.1899 13.75H24.5799L21.6999 12.11Z" fill="#222222"/>
<path d="M27.9998 15.25H14.9998C13.5698 15.25 12.3998 16.35 12.2798 17.75H15.4998C17.0198 17.75 18.2498 18.98 18.2498 20.5V22.5C18.2498 24.02 17.0198 25.25 15.4998 25.25H12.2798C12.4098 26.65 13.5698 27.75 14.9998 27.75H27.9998C29.5198 27.75 30.7498 26.52 30.7498 25V18C30.7498 16.48 29.5198 15.25 27.9998 15.25Z" fill="#222222"/>
<defs>
<linearGradient id="paint0_linear_115_434" x1="16.5" y1="0" x2="16.5" y2="33" gradientUnits="userSpaceOnUse">
<stop stop-color="#3AFF4E"/>
<stop offset="0.0001" stop-color="#3AFF4E"/>
<stop offset="0.9999" stop-color="#9DFF50"/>
<stop offset="1" stop-opacity="0"/>
</linearGradient>
</defs>
</svg>
